<svg width="430" height="932" viewBox="0 0 430 932" fill="none" xmlns="http://www.w3.org/2000/svg">
  <defs>
    <linearGradient id="bg1" x1="0" y1="0" x2="430" y2="932" gradientUnits="userSpaceOnUse">
      <stop stop-color="#071833"/>
      <stop offset="1" stop-color="#020611"/>
    </linearGradient>
    <linearGradient id="blueRing" x1="120" y1="220" x2="320" y2="400" gradientUnits="userSpaceOnUse">
      <stop stop-color="#7AB4FF"/>
      <stop offset="1" stop-color="#3E7EF2"/>
    </linearGradient>
    <linearGradient id="btnBlue" x1="24" y1="760" x2="406" y2="760" gradientUnits="userSpaceOnUse">
      <stop stop-color="#68A3FF"/>
      <stop offset="1" stop-color="#4A80E4"/>
    </linearGradient>
    <filter id="glow" x="0" y="0" width="430" height="932" filterUnits="userSpaceOnUse" color-interpolation-filters="sRGB">
      <feGaussianBlur stdDeviation="20"/>
    </filter>
  </defs>

  <rect width="430" height="932" rx="44" fill="url(#bg1)"/>
  <ellipse cx="210" cy="180" rx="130" ry="70" fill="#2F70E8" opacity="0.22" filter="url(#glow)"/>

  <text x="34" y="78" fill="white" font-family="Manrope, Arial" font-size="48" font-weight="700">Friday</text>
  <text x="34" y="112" fill="#9AA9C8" font-family="Manrope, Arial" font-size="23">March 13</text>

  <rect x="34" y="144" width="362" height="408" rx="28" fill="#2C3446" fill-opacity="0.85" stroke="#5E7090" stroke-opacity="0.55"/>

  <circle cx="215" cy="338" r="118" stroke="#223557" stroke-width="22"/>
  <path d="M215 220 A118 118 0 1 1 132 420" stroke="url(#blueRing)" stroke-width="22" stroke-linecap="round"/>
  <circle cx="291" cy="284" r="9" fill="#63A2FF"/>

  <text x="215" y="338" text-anchor="middle" fill="white" font-family="Manrope, Arial" font-size="66" font-weight="700">1,677</text>
  <text x="215" y="372" text-anchor="middle" fill="#A7B2C8" font-family="Manrope, Arial" font-size="27">steps</text>

  <rect x="58" y="492" width="314" height="10" rx="5" fill="#344A71"/>
  <rect x="58" y="492" width="130" height="10" rx="5" fill="#5A99FF"/>
  <text x="58" y="530" fill="#A8B7D5" font-family="Manrope, Arial" font-size="18">Goal: 4,000 steps</text>
  <text x="340" y="530" fill="#62A2FF" font-family="Manrope, Arial" font-size="18" font-weight="700">41%</text>

  <rect x="34" y="572" width="362" height="108" rx="24" fill="#303846" fill-opacity="0.86" stroke="#5C6F93" stroke-opacity="0.45"/>
  <line x1="154" y1="596" x2="154" y2="654" stroke="#536482"/>
  <line x1="276" y1="596" x2="276" y2="654" stroke="#536482"/>
  <text x="64" y="633" fill="#F4F8FF" font-family="Manrope, Arial" font-size="26" font-weight="700">1.63 km</text>
  <text x="66" y="661" fill="#A4B1CB" font-family="Manrope, Arial" font-size="18">Distance</text>
  <text x="190" y="633" fill="#F4F8FF" font-family="Manrope, Arial" font-size="26" font-weight="700">236 kcal</text>
  <text x="208" y="661" fill="#A4B1CB" font-family="Manrope, Arial" font-size="18">Calories</text>
  <text x="310" y="633" fill="#F4F8FF" font-family="Manrope, Arial" font-size="26" font-weight="700">16 min</text>
  <text x="325" y="661" fill="#A4B1CB" font-family="Manrope, Arial" font-size="18">Active</text>

  <rect x="24" y="716" width="382" height="84" rx="28" fill="url(#btnBlue)"/>
  <text x="215" y="768" text-anchor="middle" fill="#F4F8FF" font-family="Manrope, Arial" font-size="38" font-weight="700">Start Workout</text>

  <rect x="34" y="824" width="362" height="78" rx="30" fill="#181F2D" fill-opacity="0.88" stroke="#45536E"/>
  <circle cx="74" cy="863" r="24" fill="#4E8DF8"/>
  <rect x="130" y="850" width="28" height="26" rx="6" fill="#E7F0FF" fill-opacity="0.82"/>
  <circle cx="215" cy="863" r="15" fill="#DFE9FF"/>
  <circle cx="280" cy="863" r="12" fill="#DFE9FF"/>
  <path d="M338 847L353 863L338 879" stroke="#DFE9FF" stroke-width="6" stroke-linecap="round" stroke-linejoin="round"/>
</svg>
